0
SECTION
2
HEADER
9
$INSUNITS
70
4
9
$ACADVER
1
AC1014
9
$HANDSEED
5
FFFF
0
ENDSEC
0
SECTION
2
TABLES
0
TABLE
2
VPORT
5
8
100
AcDbSymbolTable
0
ENDTAB
0
TABLE
2
LTYPE
5
5
100
AcDbSymbolTable
70
2
0
LTYPE
5
14
100
AcDbSymbolTableRecord
100
AcDbLinetypeTableRecord
2
BYBLOCK
70
0
0
LTYPE
5
15
100
AcDbSymbolTableRecord
100
AcDbLinetypeTableRecord
2
BYLAYER
70
0
0
ENDTAB
0
TABLE
2
LAYER
5
2
100
AcDbSymbolTable
70
3
0
LAYER
5
50
100
AcDbSymbolTableRecord
100
AcDbLayerTableRecord
2
0
70
0
6
CONTINUOUS
0
LAYER
5
51
100
AcDbSymbolTableRecord
100
AcDbLayerTableRecord
2
CUTOUTS
70
0
62
1
6
CONTINUOUS
0
LAYER
5
52
100
AcDbSymbolTableRecord
100
AcDbLayerTableRecord
2
PERIMETER
70
0
62
5
6
CONTINUOUS
0
ENDTAB
0
TABLE
2
STYLE
5
3
100
AcDbSymbolTable
70
1
0
STYLE
5
11
100
AcDbSymbolTableRecord
100
AcDbTextStyleTableRecord
2
STANDARD
70
0
0
ENDTAB
0
TABLE
2
VIEW
5
6
100
AcDbSymbolTable
0
ENDTAB
0
TABLE
2
UCS
5
7
100
AcDbSymbolTable
0
ENDTAB
0
TABLE
2
APPID
5
9
100
AcDbSymbolTable
70
1
0
APPID
5
12
100
AcDbSymbolTableRecord
100
AcDbRegAppTableRecord
2
ACAD
70
0
0
ENDTAB
0
TABLE
2
DIMSTYLE
5
A
100
AcDbSymbolTable
0
ENDTAB
0
TABLE
2
BLOCK_RECORD
5
1
100
AcDbSymbolTable
70
2
0
BLOCK_RECORD
5
1F
100
AcDbSymbolTableRecord
100
AcDbBlockTableRecord
2
*MODEL_SPACE
0
BLOCK_RECORD
5
1B
100
AcDbSymbolTableRecord
100
AcDbBlockTableRecord
2
*PAPER_SPACE
0
ENDTAB
0
ENDSEC
0
SECTION
2
BLOCKS
0
BLOCK
5
20
100
AcDbEntity
100
AcDbBlockBegin
2
*MODEL_SPACE
0
ENDBLK
5
21
100
AcDbEntity
100
AcDbBlockEnd
0
BLOCK
5
1C
100
AcDbEntity
100
AcDbBlockBegin
2
*PAPER_SPACE
0
ENDBLK
5
1D
100
AcDbEntity
100
AcDbBlockEnd
0
ENDSEC
0
SECTION
2
ENTITIES
0
CIRCLE
5
100
100
AcDbEntity
8
CUTOUTS
100
AcDbCircle
10
37.794879782133329
20
-61.240072423288517
30
0
40
1.1000000000000032
210
0
220
0
230
1
0
CIRCLE
5
101
100
AcDbEntity
8
CUTOUTS
100
AcDbCircle
10
19.794879782133318
20
-28.833822423288524
30
0
40
1.0999999999999988
210
0
220
0
230
1
0
CIRCLE
5
102
100
AcDbEntity
8
CUTOUTS
100
AcDbCircle
10
91.794879782133307
20
-27.771322423288531
30
0
40
1.0999999999999943
210
0
220
0
230
1
0
CIRCLE
5
103
100
AcDbEntity
8
CUTOUTS
100
AcDbCircle
10
91.794879782133322
20
-59.115072423288517
30
0
40
1.0999999999999943
210
0
220
0
230
1
0
CIRCLE
5
104
100
AcDbEntity
8
CUTOUTS
100
AcDbCircle
10
55.794879782133329
20
-38.927572423288524
30
0
40
1.1000000000000032
210
0
220
0
230
1
0
CIRCLE
5
105
100
AcDbEntity
8
CUTOUTS
100
AcDbCircle
10
107.29487978213334
20
-81.052572423288495
30
0
40
1.0999999999999943
210
0
220
0
230
1
0
LWPOLYLINE
5
106
100
AcDbEntity
8
CUTOUTS
100
AcDbPolyline
90
4
70
1
43
0.0
10
21.694879782133334
20
-76.74007242328851
10
21.694879782133334
20
-62.740072423288524
10
35.89487978213333
20
-62.740072423288524
10
35.89487978213333
20
-76.74007242328851
0
LWPOLYLINE
5
107
100
AcDbEntity
8
CUTOUTS
100
AcDbPolyline
90
4
70
1
43
0.0
10
89.89487978213333
20
-24.49007242328852
10
89.89487978213333
20
-38.490072423288517
10
75.694879782133327
20
-38.490072423288517
10
75.694879782133327
20
-24.49007242328852
0
LWPOLYLINE
5
108
100
AcDbEntity
8
CUTOUTS
100
AcDbPolyline
90
4
70
1
43
0.0
10
109.39578247608571
20
-84.489574357290422
10
121.6939715878508
20
-91.589580015858445
10
114.69397708818094
20
-103.71357048928661
10
102.39578797641585
20
-96.613564830718644
0
LWPOLYLINE
5
109
100
AcDbEntity
8
CUTOUTS
100
AcDbPolyline
90
4
70
1
43
0.0
10
53.894879782133351
20
-55.490072423288517
10
39.694879782133341
20
-55.490072423288517
10
39.694879782133341
20
-41.490072423288538
10
53.894879782133351
20
-41.490072423288538
0
LWPOLYLINE
5
10A
100
AcDbEntity
8
CUTOUTS
100
AcDbPolyline
90
4
70
1
43
0.0
10
17.89487978213333
20
-42.74007242328851
10
3.6948797821333379
20
-42.74007242328851
10
3.6948797821333379
20
-28.740072423288517
10
17.89487978213333
20
-28.740072423288517
0
LWPOLYLINE
5
10B
100
AcDbEntity
8
CUTOUTS
100
AcDbPolyline
90
4
70
1
43
0.0
10
107.89487978213332
20
-26.615072423288517
10
107.89487978213332
20
-40.615072423288517
10
93.694879782133341
20
-40.615072423288517
10
93.694879782133341
20
-26.615072423288517
0
LWPOLYLINE
5
10C
100
AcDbEntity
8
CUTOUTS
100
AcDbPolyline
90
4
70
1
43
0.0
10
71.89487978213333
20
-22.365072423288524
10
71.89487978213333
20
-36.36507242328851
10
57.694879782133334
20
-36.36507242328851
10
57.694879782133334
20
-22.365072423288524
0
LWPOLYLINE
5
10D
100
AcDbEntity
8
CUTOUTS
100
AcDbPolyline
90
4
70
1
43
0.0
10
3.6948797821333379
20
-59.740072423288517
10
3.6948797821333379
20
-45.740072423288524
10
17.89487978213333
20
-45.740072423288524
10
17.89487978213333
20
-59.740072423288517
0
LWPOLYLINE
5
10E
100
AcDbEntity
8
CUTOUTS
100
AcDbPolyline
90
4
70
1
43
0.0
10
66.694879782133327
20
-91.615072423288524
10
66.694879782133327
20
-77.61507242328851
10
80.89487978213333
20
-77.61507242328851
10
80.89487978213333
20
-91.615072423288524
0
LWPOLYLINE
5
10F
100
AcDbEntity
8
CUTOUTS
100
AcDbPolyline
90
4
70
1
43
0.0
10
93.694879782133341
20
-74.615072423288524
10
93.694879782133341
20
-60.615072423288517
10
107.89487978213332
20
-60.615072423288517
10
107.89487978213332
20
-74.615072423288524
0
LWPOLYLINE
5
110
100
AcDbEntity
8
CUTOUTS
100
AcDbPolyline
90
4
70
1
43
0.0
10
84.694879782133341
20
-93.74007242328851
10
84.694879782133341
20
-79.74007242328851
10
98.89487978213333
20
-79.74007242328851
10
98.89487978213333
20
-93.74007242328851
0
LWPOLYLINE
5
111
100
AcDbEntity
8
CUTOUTS
100
AcDbPolyline
90
4
70
1
43
0.0
10
57.694879782133334
20
-39.365072423288517
10
71.89487978213333
20
-39.365072423288517
10
71.89487978213333
20
-53.36507242328851
10
57.694879782133334
20
-53.36507242328851
0
LWPOLYLINE
5
112
100
AcDbEntity
8
CUTOUTS
100
AcDbPolyline
90
4
70
1
43
0.0
10
17.89487978213333
20
-76.74007242328851
10
3.6948797821333379
20
-76.74007242328851
10
3.6948797821333379
20
-62.740072423288524
10
17.89487978213333
20
-62.740072423288524
0
LWPOLYLINE
5
113
100
AcDbEntity
8
CUTOUTS
100
AcDbPolyline
90
4
70
1
43
0.0
10
93.694879782133341
20
-43.615072423288524
10
107.89487978213332
20
-43.615072423288524
10
107.89487978213332
20
-57.61507242328851
10
93.694879782133341
20
-57.61507242328851
0
LWPOLYLINE
5
114
100
AcDbEntity
8
CUTOUTS
100
AcDbPolyline
90
4
70
1
43
0.0
10
53.894879782133351
20
-38.490072423288517
10
39.694879782133341
20
-38.490072423288517
10
39.694879782133341
20
-24.49007242328852
10
53.894879782133351
20
-24.49007242328852
0
LWPOLYLINE
5
115
100
AcDbEntity
8
CUTOUTS
100
AcDbPolyline
90
4
70
1
43
0.0
10
75.694879782133327
20
-58.490072423288517
10
89.89487978213333
20
-58.490072423288517
10
89.89487978213333
20
-72.490072423288524
10
75.694879782133327
20
-72.490072423288524
0
LWPOLYLINE
5
116
100
AcDbEntity
8
CUTOUTS
100
AcDbPolyline
90
4
70
1
43
0.0
10
21.694879782133334
20
-42.74007242328851
10
21.694879782133334
20
-28.740072423288517
10
35.89487978213333
20
-28.740072423288517
10
35.89487978213333
20
-42.74007242328851
0
LWPOLYLINE
5
117
100
AcDbEntity
8
CUTOUTS
100
AcDbPolyline
90
4
70
1
43
0.0
10
75.694879782133327
20
-41.490072423288538
10
89.89487978213333
20
-41.490072423288538
10
89.89487978213333
20
-55.490072423288517
10
75.694879782133327
20
-55.490072423288517
0
LWPOLYLINE
5
118
100
AcDbEntity
8
CUTOUTS
100
AcDbPolyline
90
4
70
1
43
0.0
10
35.89487978213333
20
-45.740072423288524
10
35.89487978213333
20
-59.740072423288517
10
21.694879782133334
20
-59.740072423288517
10
21.694879782133334
20
-45.740072423288524
0
LWPOLYLINE
5
119
100
AcDbEntity
8
CUTOUTS
100
AcDbPolyline
90
4
70
1
43
0.0
10
39.694879782133341
20
-58.490072423288517
10
53.894879782133351
20
-58.490072423288517
10
53.894879782133351
20
-72.490072423288524
10
39.694879782133341
20
-72.490072423288524
0
LWPOLYLINE
5
11A
100
AcDbEntity
8
CUTOUTS
100
AcDbPolyline
90
4
70
1
43
0.0
10
57.694879782133334
20
-70.36507242328851
10
57.694879782133334
20
-56.365072423288531
10
71.89487978213333
20
-56.365072423288531
10
71.89487978213333
20
-70.36507242328851
0
LWPOLYLINE
5
11B
100
AcDbEntity
8
CUTOUTS
100
AcDbPolyline
90
4
70
1
43
0.0
10
130.19397756056648
20
-76.866783464034
10
123.19397290728944
20
-88.991563937816451
10
110.89578319824469
20
-81.891166209957106
10
117.89578546242838
20
-69.766776081369443
0
ARC
5
11C
100
AcDbEntity
8
PERIMETER
100
AcDbCircle
10
59.294879767232224
20
-82.740072438189628
30
0
40
3.2499999999999662
210
-0
220
0
230
1
100
AcDbArc
50
0
51
90.000000000000867
0
LINE
5
11D
100
AcDbEntity
8
PERIMETER
100
AcDbLine
10
1.5448797672321735
20
-79.490072438189642
30
0
11
59.294879767232175
21
-79.490072438189657
31
0
0
ARC
5
11E
100
AcDbEntity
8
PERIMETER
100
AcDbCircle
10
1.5448797672321879
20
-78.490072438189628
30
0
40
1.0000000000000142
210
0
220
0
230
1
100
AcDbArc
50
180
51
269.9999999999992
0
LINE
5
11F
100
AcDbEntity
8
PERIMETER
100
AcDbLine
10
0.54487976723217346
20
-27.348856911338871
30
0
11
0.54487976723217368
21
-78.490072438189628
31
0
0
SPLINE
5
120
100
AcDbEntity
8
PERIMETER
100
AcDbSpline
70
0
71
3
72
14
73
10
74
0
42
0.000000001
43
0.0000000001
44
0.0000000001
40
0
40
0
40
0
40
0
40
0.039064419215898878
40
0.039064419215898878
40
0.078128838431797992
40
0.078128838431797992
40
0.1039946745531323
40
0.1039946745531323
40
0.1298605106744668
40
0.1298605106744668
40
0.1298605106744668
40
0.1298605106744668
10
0.54487976723217346
20
-27.348856911338871
30
0
10
0.54487976723217346
20
-27.218642180619209
30
0
10
0.5703135996867752
20
-27.089672373697738
30
0
10
0.66918574117780949
20
-26.848741254863839
30
0
10
0.7416787786521073
20
-26.739083375765066
30
0
10
0.8937133885620705
20
-26.585040415551742
30
0
10
0.96196119164385085
20
-26.531765038954426
30
0
10
1.1104226843171816
20
-26.444047526423734
30
0
10
1.1900149295863618
20
-26.409972566848026
30
0
10
1.2729862809485812
20
-26.386530104179432
30
0
0
SPLINE
5
121
100
AcDbEntity
8
PERIMETER
100
AcDbSpline
70
0
71
3
72
26
73
22
74
0
42
0.000000001
43
0.0000000001
44
0.0000000001
40
-0.03920131638648907
40
-0.03920131638648907
40
-0.03920131638648907
40
-0.03920131638648907
40
0.0019231146221559896
40
0.0019231146221559896
40
0.0019231146221559896
40
0.0096135304353499491
40
0.0096135304353499491
40
0.0096135304353499491
40
0.50055645103768087
40
0.50055645103768087
40
0.50055645103768087
40
0.96741476336924259
40
0.96741476336924259
40
0.96741476336924259
40
0.99178169981439201
40
0.99178169981439201
40
0.99178169981439201
40
0.99836556602309645
40
0.99836556602309645
40
0.99836556602309645
40
1.0143113691477548
40
1.0143113691477548
40
1.0143113691477548
40
1.0143113691477548
10
1.2729862809485808
20
-26.386530104179432
30
0
10
2.5709831752614725
20
-26.019798175154335
30
0
10
3.8689800695743681
20
-25.653066246129246
30
0
10
5.1669769638872678
20
-25.286334317104149
30
0
10
5.4097070296090779
20
-25.217754133573223
30
0
10
5.6524370953308409
20
-25.149173950042321
30
0
10
5.8951671610526475
20
-25.080593766511395
30
0
10
20.019825497046693
20
-21.089857562846198
30
0
10
35.150091219319101
20
-18.714971035078353
30
0
10
51.87681547791577
20
-18.461734645952966
30
0
10
67.825321052508741
20
-18.220280198494105
30
0
10
85.531103146386357
20
-19.87427266556136
30
0
10
104.40478610305667
20
-22.950457281809108
30
0
10
105.38820487287133
20
-23.110742780827941
30
0
10
106.37457387934029
20
-23.274961907591791
30
0
10
107.36388145965243
20
-23.44311002292903
30
0
10
107.64136066095699
20
-23.490271902280973
30
0
10
107.91883986226161
20
-23.53743378163292
30
0
10
108.19631906356612
20
-23.584595660984853
30
0
10
108.86836016752116
20
-23.698819434569547
30
0
10
109.54040127147618
20
-23.813043208154244
30
0
10
110.21244237543122
20
-23.927266981738939
30
0
0
SPLINE
5
122
100
AcDbEntity
8
PERIMETER
100
AcDbSpline
70
0
71
3
72
14
73
10
74
0
42
0.000000001
43
0.0000000001
44
0.0000000001
40
0
40
0
40
0
40
0
40
0.039064438783272926
40
0.039064438783272926
40
0.078128877566546504
40
0.078128877566546504
40
0.10937204055987967
40
0.10937204055987967
40
0.14061520355321228
40
0.14061520355321228
40
0.14061520355321228
40
0.14061520355321228
10
110.21244237543122
20
-23.927266981738917
30
0
10
110.34081612593234
20
-23.949086084953237
30
0
10
110.46370079736711
20
-23.995770833729097
30
0
10
110.68465836275092
20
-24.133616133361922
30
0
10
110.78061878194373
20
-24.223458808022894
30
0
10
110.91747577084499
20
-24.413706415120625
30
0
10
110.96471364799331
20
-24.50723219453031
30
0
10
111.02861087290769
20
-24.705476823255466
30
0
10
111.0448797970345
20
-24.808984361915346
30
0
10
111.0448797970345
20
-24.913128238559786
30
0
0
LINE
5
123
100
AcDbEntity
8
PERIMETER
100
AcDbLine
10
111.04487979703451
20
-57.291846956184422
30
0
11
111.0448797970345
21
-24.913128238559793
31
0
0
ARC
5
124
100
AcDbEntity
8
PERIMETER
100
AcDbCircle
10
116.29487979703453
20
-57.291846956184436
30
0
40
5.2500000000000036
210
0
220
0
230
1
100
AcDbArc
50
180
51
239.99282468744099
0
LINE
5
125
100
AcDbEntity
8
PERIMETER
100
AcDbLine
10
134.43064972573009
20
-73.828183304458022
30
0
11
113.66931042986089
21
-61.838151554224424
31
0
0
ARC
5
126
100
AcDbEntity
8
PERIMETER
100
AcDbCircle
10
133.9305412748399
20
-74.694146085037033
30
0
40
0.9999999999999708
210
-0
220
0
230
1
100
AcDbArc
50
-30.007175312558569
51
59.992824687441043
0
LINE
5
127
100
AcDbEntity
8
PERIMETER
100
AcDbLine
10
134.42152892172822
20
-75.843542697234966
30
0
11
134.79650405541892
21
-75.194254535927229
31
0
0
LINE
5
128
100
AcDbEntity
8
PERIMETER
100
AcDbLine
10
125.17143486089631
20
-91.865032054320324
30
0
11
134.42152892172822
21
-75.843542697234966
31
0
0
LINE
5
129
100
AcDbEntity
8
PERIMETER
100
AcDbLine
10
116.98996449665928
20
-106.036301249628
30
0
11
125.17143486089631
21
-91.865032054320324
31
0
0
LINE
5
12A
100
AcDbEntity
8
PERIMETER
100
AcDbLine
10
116.2284876706571
20
-107.35521780057039
30
0
11
116.98996449665928
21
-106.036301249628
31
0
0
ARC
5
12B
100
AcDbEntity
8
PERIMETER
100
AcDbCircle
10
115.36246226695143
20
-106.85521780043399
30
0
40
0.99999999999999067
210
0
220
0
230
1
100
AcDbArc
50
240.00000000000011
51
329.99999999097577
0
LINE
5
12C
100
AcDbEntity
8
PERIMETER
100
AcDbLine
10
106.86601284857828
20
-103.10449097995949
30
0
11
114.86246226695144
21
-107.72124320421841
31
0
0
ARC
5
12D
100
AcDbEntity
8
PERIMETER
100
AcDbCircle
10
86.74101284857781
20
-137.96201348228396
30
0
40
40.250000000000945
210
0
220
-0
230
1
100
AcDbArc
50
60.000000000000007
51
73.864684546394415
0
LINE
5
12E
100
AcDbEntity
8
PERIMETER
100
AcDbLine
10
96.429137272805747
20
-98.864272579688262
30
0
11
97.926761425400471
21
-99.2975397528229
31
0
0
ARC
5
12F
100
AcDbEntity
8
PERIMETER
100
AcDbCircle
10
85.243388695983725
20
-137.52874630914815
30
0
40
40.249999999999616
210
0
220
-0
230
1
100
AcDbArc
50
73.864684546394827
51
89.508351336311406
0
LINE
5
130
100
AcDbEntity
8
PERIMETER
100
AcDbLine
10
63.288444180251687
20
-97.088866884227357
30
0
11
85.58876519726968
21
-97.280228136769068
31
0
0
ARC
5
131
100
AcDbEntity
8
PERIMETER
100
AcDbCircle
10
63.294879767232182
20
-96.338894495922105
30
0
40
0.75000000000004619
210
0
220
0
230
1
100
AcDbArc
50
180
51
269.50835133631062
0
LINE
5
132
100
AcDbEntity
8
PERIMETER
100
AcDbLine
10
62.544879767232189
20
-82.740072438189642
30
0
11
62.544879767232132
21
-96.338894495922176
31
0
0
ENDSEC
0
SECTION
2
OBJECTS
0
DICTIONARY
5
C
100
AcDbDictionary
3
ACAD_GROUP
350
D
3
ACAD_MLINESTYLE
350
17
0
DICTIONARY
5
D
100
AcDbDictionary
0
DICTIONARY
5
1A
330
C
100
AcDbDictionary
0
DICTIONARY
5
17
100
AcDbDictionary
0
ENDSEC
0
EOF
