0
SECTION
2
HEADER
9
$INSUNITS
70
4
9
$ACADVER
1
AC1014
9
$HANDSEED
5
FFFF
0
ENDSEC
0
SECTION
2
TABLES
0
TABLE
2
VPORT
5
8
100
AcDbSymbolTable
0
ENDTAB
0
TABLE
2
LTYPE
5
5
100
AcDbSymbolTable
70
2
0
LTYPE
5
14
100
AcDbSymbolTableRecord
100
AcDbLinetypeTableRecord
2
BYBLOCK
70
0
0
LTYPE
5
15
100
AcDbSymbolTableRecord
100
AcDbLinetypeTableRecord
2
BYLAYER
70
0
0
ENDTAB
0
TABLE
2
LAYER
5
2
100
AcDbSymbolTable
70
3
0
LAYER
5
50
100
AcDbSymbolTableRecord
100
AcDbLayerTableRecord
2
0
70
0
6
CONTINUOUS
0
LAYER
5
51
100
AcDbSymbolTableRecord
100
AcDbLayerTableRecord
2
CUTOUTS
70
0
62
1
6
CONTINUOUS
0
LAYER
5
52
100
AcDbSymbolTableRecord
100
AcDbLayerTableRecord
2
PERIMETER
70
0
62
5
6
CONTINUOUS
0
ENDTAB
0
TABLE
2
STYLE
5
3
100
AcDbSymbolTable
70
1
0
STYLE
5
11
100
AcDbSymbolTableRecord
100
AcDbTextStyleTableRecord
2
STANDARD
70
0
0
ENDTAB
0
TABLE
2
VIEW
5
6
100
AcDbSymbolTable
0
ENDTAB
0
TABLE
2
UCS
5
7
100
AcDbSymbolTable
0
ENDTAB
0
TABLE
2
APPID
5
9
100
AcDbSymbolTable
70
1
0
APPID
5
12
100
AcDbSymbolTableRecord
100
AcDbRegAppTableRecord
2
ACAD
70
0
0
ENDTAB
0
TABLE
2
DIMSTYLE
5
A
100
AcDbSymbolTable
0
ENDTAB
0
TABLE
2
BLOCK_RECORD
5
1
100
AcDbSymbolTable
70
2
0
BLOCK_RECORD
5
1F
100
AcDbSymbolTableRecord
100
AcDbBlockTableRecord
2
*MODEL_SPACE
0
BLOCK_RECORD
5
1B
100
AcDbSymbolTableRecord
100
AcDbBlockTableRecord
2
*PAPER_SPACE
0
ENDTAB
0
ENDSEC
0
SECTION
2
BLOCKS
0
BLOCK
5
20
100
AcDbEntity
100
AcDbBlockBegin
2
*MODEL_SPACE
0
ENDBLK
5
21
100
AcDbEntity
100
AcDbBlockEnd
0
BLOCK
5
1C
100
AcDbEntity
100
AcDbBlockBegin
2
*PAPER_SPACE
0
ENDBLK
5
1D
100
AcDbEntity
100
AcDbBlockEnd
0
ENDSEC
0
SECTION
2
ENTITIES
0
CIRCLE
5
100
100
AcDbEntity
8
CUTOUTS
100
AcDbCircle
10
107.29487978213335
20
-63.920459157238142
30
0
40
1.0999999999999943
210
0
220
0
230
1
0
CIRCLE
5
101
100
AcDbEntity
8
CUTOUTS
100
AcDbCircle
10
37.794879782133329
20
-44.10795915723817
30
0
40
1.1000000000000032
210
0
220
0
230
1
0
CIRCLE
5
102
100
AcDbEntity
8
CUTOUTS
100
AcDbCircle
10
19.794879782133318
20
-11.701709157238165
30
0
40
1.0999999999999988
210
0
220
0
230
1
0
CIRCLE
5
103
100
AcDbEntity
8
CUTOUTS
100
AcDbCircle
10
91.794879782133307
20
-41.98295915723817
30
0
40
1.0999999999999943
210
0
220
0
230
1
0
CIRCLE
5
104
100
AcDbEntity
8
CUTOUTS
100
AcDbCircle
10
91.794879782133293
20
-10.639209157238177
30
0
40
1.0999999999999943
210
0
220
0
230
1
0
CIRCLE
5
105
100
AcDbEntity
8
CUTOUTS
100
AcDbCircle
10
55.794879782133329
20
-21.795459157238177
30
0
40
1.1000000000000032
210
0
220
0
230
1
0
LWPOLYLINE
5
106
100
AcDbEntity
8
CUTOUTS
100
AcDbPolyline
90
4
70
1
43
0.0
10
21.494879782133332
20
-11.607959157238168
10
36.094879782133333
20
-11.607959157238168
10
36.094879782133333
20
-25.607959157238156
10
21.494879782133332
20
-25.607959157238156
0
LWPOLYLINE
5
107
100
AcDbEntity
8
CUTOUTS
100
AcDbPolyline
90
4
70
1
43
0.0
10
90.094879782133319
20
-38.35795915723817
10
75.494879782133324
20
-38.35795915723817
10
75.494879782133324
20
-24.357959157238174
10
90.094879782133319
20
-24.357959157238174
0
LWPOLYLINE
5
108
100
AcDbEntity
8
CUTOUTS
100
AcDbPolyline
90
4
70
1
43
0.0
10
3.4948797821333377
20
-28.60795915723817
10
18.094879782133333
20
-28.60795915723817
10
18.094879782133329
20
-42.60795915723817
10
3.4948797821333377
20
-42.60795915723817
0
LWPOLYLINE
5
109
100
AcDbEntity
8
CUTOUTS
100
AcDbPolyline
90
4
70
1
43
0.0
10
72.094879782133333
20
-39.23295915723817
10
72.094879782133333
20
-53.232959157238149
10
57.494879782133346
20
-53.232959157238149
10
57.494879782133346
20
-39.23295915723817
0
LWPOLYLINE
5
10A
100
AcDbEntity
8
CUTOUTS
100
AcDbPolyline
90
4
70
1
43
0.0
10
66.494879782133324
20
-60.482959157238163
10
81.094879782133319
20
-60.482959157238163
10
81.094879782133319
20
-74.48295915723817
10
66.494879782133324
20
-74.48295915723817
0
LWPOLYLINE
5
10B
100
AcDbEntity
8
CUTOUTS
100
AcDbPolyline
90
4
70
1
43
0.0
10
54.094879782133347
20
-41.35795915723817
10
54.094879782133347
20
-55.35795915723817
10
39.494879782133353
20
-55.35795915723817
10
39.494879782133353
20
-41.35795915723817
0
LWPOLYLINE
5
10C
100
AcDbEntity
8
CUTOUTS
100
AcDbPolyline
90
4
70
1
43
0.0
10
36.094879782133333
20
-42.60795915723817
10
21.494879782133332
20
-42.60795915723817
10
21.494879782133332
20
-28.60795915723817
10
36.094879782133333
20
-28.60795915723817
0
LWPOLYLINE
5
10D
100
AcDbEntity
8
CUTOUTS
100
AcDbPolyline
90
4
70
1
43
0.0
10
108.09487978213332
20
-40.482959157238163
10
93.494879782133353
20
-40.482959157238163
10
93.494879782133353
20
-26.48295915723817
10
108.09487978213332
20
-26.48295915723817
0
LWPOLYLINE
5
10E
100
AcDbEntity
8
CUTOUTS
100
AcDbPolyline
90
4
70
1
43
0.0
10
108.09487978213332
20
-43.48295915723817
10
108.09487978213332
20
-57.48295915723817
10
93.494879782133353
20
-57.48295915723817
10
93.494879782133353
20
-43.48295915723817
0
LWPOLYLINE
5
10F
100
AcDbEntity
8
CUTOUTS
100
AcDbPolyline
90
4
70
1
43
0.0
10
114.8671843470042
20
-86.68145345085756
10
102.22258071759259
20
-79.381455337046958
10
109.22257521726249
20
-67.257464863618736
10
121.86717884667405
20
-74.55746297742941
0
LWPOLYLINE
5
110
100
AcDbEntity
8
CUTOUTS
100
AcDbPolyline
90
4
70
1
43
0.0
10
39.494879782133353
20
-21.357959157238167
10
39.494879782133353
20
-7.3579591572381631
10
54.094879782133347
20
-7.3579591572381631
10
54.094879782133347
20
-21.357959157238167
0
LWPOLYLINE
5
111
100
AcDbEntity
8
CUTOUTS
100
AcDbPolyline
90
4
70
1
43
0.0
10
57.494879782133346
20
-36.232959157238156
10
57.494879782133346
20
-22.23295915723817
10
72.094879782133333
20
-22.23295915723817
10
72.094879782133333
20
-36.232959157238156
0
LWPOLYLINE
5
112
100
AcDbEntity
8
CUTOUTS
100
AcDbPolyline
90
4
70
1
43
0.0
10
3.4948797821333377
20
-45.60795915723817
10
18.094879782133333
20
-45.60795915723817
10
18.094879782133329
20
-59.607959157238177
10
3.4948797821333377
20
-59.607959157238177
0
LWPOLYLINE
5
113
100
AcDbEntity
8
CUTOUTS
100
AcDbPolyline
90
4
70
1
43
0.0
10
90.094879782133319
20
-41.35795915723817
10
90.094879782133319
20
-55.35795915723817
10
75.494879782133324
20
-55.35795915723817
10
75.494879782133324
20
-41.35795915723817
0
LWPOLYLINE
5
114
100
AcDbEntity
8
CUTOUTS
100
AcDbPolyline
90
4
70
1
43
0.0
10
84.494879782133353
20
-76.60795915723817
10
84.494879782133353
20
-62.60795915723817
10
99.094879782133319
20
-62.60795915723817
10
99.094879782133319
20
-76.60795915723817
0
LWPOLYLINE
5
115
100
AcDbEntity
8
CUTOUTS
100
AcDbPolyline
90
4
70
1
43
0.0
10
36.094879782133333
20
-59.607959157238177
10
21.494879782133332
20
-59.607959157238177
10
21.494879782133332
20
-45.60795915723817
10
36.094879782133333
20
-45.60795915723817
0
LWPOLYLINE
5
116
100
AcDbEntity
8
CUTOUTS
100
AcDbPolyline
90
4
70
1
43
0.0
10
54.094879782133347
20
-24.357959157238174
10
54.094879782133347
20
-38.35795915723817
10
39.494879782133353
20
-38.35795915723817
10
39.494879782133353
20
-24.357959157238174
0
LWPOLYLINE
5
117
100
AcDbEntity
8
CUTOUTS
100
AcDbPolyline
90
4
70
1
43
0.0
10
3.4948797821333377
20
-11.607959157238168
10
18.094879782133333
20
-11.607959157238168
10
18.094879782133329
20
-25.607959157238156
10
3.4948797821333377
20
-25.607959157238156
0
LWPOLYLINE
5
118
100
AcDbEntity
8
CUTOUTS
100
AcDbPolyline
90
4
70
1
43
0.0
10
117.72257820367103
20
-52.534666587735821
10
130.36718481929088
20
-59.834666425547894
10
123.36717777713287
20
-71.959451037135807
10
110.72257832842539
20
-64.65905257855097
0
LWPOLYLINE
5
119
100
AcDbEntity
8
PERIMETER
100
AcDbPolyline
90
169
70
1
43
0.0
10
63.188393782133339
20
-78.265424157238186
10
63.288115782133339
20
-78.53278915723817
10
63.424872782133342
20
-78.78324115723818
10
63.595880782133342
20
-79.011680157238175
10
63.797658782133347
20
-79.213458157238165
10
64.026097782133334
20
-79.384466157238165
10
64.276549782133344
20
-79.521223157238168
10
64.543914782133342
20
-79.620945157238168
10
64.822749782133343
20
-79.681602157238174
10
65.107379782133336
20
-79.701959157238178
10
88.537403782133339
20
-79.701959157238178
10
89.659139782133337
20
-79.722926157238177
10
90.779306782133318
20
-79.78583415723817
10
91.896338782133355
20
-79.890583157238183
10
93.008672782133345
20
-80.037025157238176
10
94.114752782133337
20
-80.224956157238182
10
95.213032782133354
20
-80.454114157238166
10
96.30197578213334
20
-80.724178157238171
10
97.380059782133301
20
-81.034769157238173
10
98.445776782133336
20
-81.385454157238172
10
99.497634782133304
20
-81.775742157238199
10
100.53416478213333
20
-82.20508815723818
10
101.55391678213334
20
-82.672891157238183
10
102.5554627821333
20
-83.178496157238158
10
103.53740378213334
20
-83.721196157238182
10
112.61551178213335
20
-88.962444157238167
10
112.87250378213332
20
-89.087196157238139
10
113.14462178213333
20
-89.174124157238168
10
113.42634978213333
20
-89.221395157238163
10
113.71193778213336
20
-89.228045157238142
10
113.99555978213336
20
-89.193938157238193
10
114.27142978213337
20
-89.119770157238179
10
114.53391778213333
20
-89.007054157238173
10
114.77766878213333
20
-88.858090157238152
10
114.99770978213334
20
-88.675917157238189
10
115.18955178213332
20
-88.464253157238176
10
115.34927878213335
20
-88.22741515723817
10
131.01685878213334
20
-60.982326157238177
10
131.14104678213334
20
-60.725410157238173
10
131.22747078213334
20
-60.453460157238183
10
131.27431078213334
20
-60.171979157238169
10
131.28061678213331
20
-59.886696157238177
10
131.24625778213334
20
-59.603420157238183
10
131.17193378213332
20
-59.32791815723818
10
131.05915878213335
20
-59.065796157238168
10
130.91022678213335
20
-58.822393157238182
10
130.7281717821333
20
-58.602662157238179
10
130.51669878213335
20
-58.41107615723817
10
130.28011278213336
20
-58.251537157238175
10
121.02103778213333
20
-52.927007157238172
10
120.86130478213335
20
-52.812997157238179
10
120.72695278213331
20
-52.669941157238178
10
120.62312678213334
20
-52.503401157238187
10
120.55382478213335
20
-52.319791157238178
10
120.52171578213333
20
-52.126182157238176
10
120.52803678213334
20
-51.930030157238171
10
120.57254378213329
20
-51.738890157238188
10
120.65352278213336
20
-51.560123157238166
10
121.35475778213333
20
-50.345549157238175
10
121.43565078213331
20
-50.16698515723818
10
121.48016078213334
20
-49.976074157238173
10
121.48657278213332
20
-49.78014715723819
10
121.45463978213331
20
-49.586734157238183
10
121.38558878213334
20
-49.403266157238164
10
121.28207378213332
20
-49.236794157238172
10
121.14807178213333
20
-49.093714157238175
10
120.98873178213336
20
-48.979524157238174
10
119.80161678213332
20
-48.294142157238184
10
111.87761178213333
20
-43.719216157238172
10
109.81987978213333
20
-42.532959157238174
10
110.91987978213336
20
-40.632959157238176
10
110.91987978213336
20
-11.102587157238171
10
110.89863478213334
20
-10.811434157238171
10
110.83516278213335
20
-10.526486157238173
10
110.73088578213333
20
-10.253812157238178
10
110.58802678213337
20
-9.9992231572381751
10
110.40962778213334
20
-9.7681421572381755
10
110.19949078213332
20
-9.5654931572381763
10
109.96209178213334
20
-9.3955921572381751
10
109.70248978213334
20
-9.2620601572381744
10
109.42621378213332
20
-9.167741157238174
10
109.13915078213333
20
-9.1146441572381676
10
108.09487978213332
20
-8.9994608339991338
10
108.09487978213332
20
-23.48295915723817
10
93.494879782133353
20
-23.48295915723817
10
93.494879782133353
20
-7.3890775912490403
10
90.094879782133319
20
-7.0140568360880557
10
90.094879782133319
20
-21.357959157238167
10
75.494879782133324
20
-21.357959157238167
10
75.494879782133324
20
-5.5611731918122675
10
75.113234782133333
20
-5.5322941572381712
10
72.372094782133331
20
-5.3626921572381736
10
72.094879782133333
20
-5.3493584642867376
10
72.094879782133333
20
-19.232959157238156
10
57.494879782133346
20
-19.232959157238156
10
57.494879782133346
20
-5.0610644947763372
10
43.138629782133336
20
-5.0610841572381737
10
43.138629782133336
20
-4.092309157238172
10
43.119423782133339
20
-3.8972151572381764
10
43.062522782133343
20
-3.7096181572381726
10
42.970114782133344
20
-3.5367271572381709
10
42.845750782133337
20
-3.3851881572381703
10
42.694211782133344
20
-3.2608241572381713
10
42.521320782133344
20
-3.1684161572381742
10
42.333723782133333
20
-3.1115151572381761
10
42.138629782133343
20
-3.0923091572381711
10
30.638629782133336
20
-3.0923091572381711
10
30.443535782133342
20
-3.1115151572381761
10
30.255938782133338
20
-3.1684161572381742
10
30.083047782133335
20
-3.2608241572381713
10
29.931508782133342
20
-3.3851881572381703
10
29.807144782133335
20
-3.5367271572381709
10
29.71473678213334
20
-3.7096181572381726
10
29.657835782133333
20
-3.8972151572381764
10
29.638629782133343
20
-4.092309157238172
10
29.638629782133343
20
-7.2485591572381747
10
29.619463782133337
20
-7.4436551572381759
10
29.562554782133333
20
-7.6312541572381676
10
29.470138782133333
20
-7.8041451572381693
10
29.345768782133341
20
-7.9556831572381714
10
29.194223782133335
20
-8.0800461572381721
10
29.021328782133338
20
-8.1724531572381753
10
28.833726782133333
20
-8.2293531572381795
10
28.638629782133336
20
-8.2485591572381711
10
20.638629782133336
20
-8.2485841572381702
10
20.497505782133338
20
-8.2597841572381725
10
16.138629782133336
20
-8.373584157238172
10
14.712574782133338
20
-8.4922701572381687
10
13.290500782133336
20
-8.6517211572381747
10
11.873572782133337
20
-8.8518091572381774
10
10.462952782133335
20
-9.0923681572381732
10
9.0597947821333324
20
-9.3732011572381779
10
2.2493507821333347
20
-10.830757157238171
10
1.9883347821333341
20
-10.905768157238178
10
1.7398817821333346
20
-11.015436157238172
10
1.5085777821333313
20
-11.157754157238173
10
1.2986877821333298
20
-11.330095157238169
10
1.1140797821333326
20
-11.52928315723817
10
0.9581597821333343
20
-11.751644157238168
10
0.83380178213332989
20
-11.993079157238178
10
0.743298782133337
20
-12.249136157238176
10
0.68832078213334036
20
-12.515093157238173
10
0.66987978213333577
20
-12.786046157238173
10
0.66987978213333577
20
-59.107959157238177
10
0.69023678213333106
20
-59.392589157238184
10
0.75089378213333724
20
-59.671424157238164
10
0.85061578213333711
20
-59.938789157238183
10
0.98737278213334001
20
-60.189241157238172
10
1.158380782133337
20
-60.417680157238173
10
1.3601587821333361
20
-60.619458157238178
10
1.5885977821333341
20
-60.790466157238178
10
1.8390497821333351
20
-60.927223157238181
10
2.1064147821333368
20
-61.026945157238181
10
2.3852497821333341
20
-61.087602157238166
10
2.6698797821333331
20
-61.10795915723817
10
61.107379782133329
20
-61.10795915723817
10
61.392009782133343
20
-61.128316157238174
10
61.670844782133337
20
-61.188973157238166
10
61.938209782133342
20
-61.288695157238166
10
62.18866178213333
20
-61.425452157238169
10
62.417100782133332
20
-61.596460157238184
10
62.618878782133336
20
-61.798238157238188
10
62.789886782133337
20
-62.026677157238169
10
62.92664378213334
20
-62.277129157238178
10
63.02636578213334
20
-62.544494157238184
10
63.087022782133324
20
-62.823329157238177
10
63.107379782133329
20
-63.107959157238184
10
63.107379782133329
20
-77.701959157238164
10
63.127736782133333
20
-77.986589157238171
0
ENDSEC
0
SECTION
2
OBJECTS
0
DICTIONARY
5
C
100
AcDbDictionary
3
ACAD_GROUP
350
D
3
ACAD_MLINESTYLE
350
17
0
DICTIONARY
5
D
100
AcDbDictionary
0
DICTIONARY
5
1A
330
C
100
AcDbDictionary
0
DICTIONARY
5
17
100
AcDbDictionary
0
ENDSEC
0
EOF
