0
SECTION
2
HEADER
9
$INSUNITS
70
4
9
$ACADVER
1
AC1014
9
$HANDSEED
5
FFFF
0
ENDSEC
0
SECTION
2
TABLES
0
TABLE
2
VPORT
5
8
100
AcDbSymbolTable
0
ENDTAB
0
TABLE
2
LTYPE
5
5
100
AcDbSymbolTable
70
2
0
LTYPE
5
14
100
AcDbSymbolTableRecord
100
AcDbLinetypeTableRecord
2
BYBLOCK
70
0
0
LTYPE
5
15
100
AcDbSymbolTableRecord
100
AcDbLinetypeTableRecord
2
BYLAYER
70
0
0
ENDTAB
0
TABLE
2
LAYER
5
2
100
AcDbSymbolTable
70
3
0
LAYER
5
50
100
AcDbSymbolTableRecord
100
AcDbLayerTableRecord
2
0
70
0
6
CONTINUOUS
0
LAYER
5
51
100
AcDbSymbolTableRecord
100
AcDbLayerTableRecord
2
CUTOUTS
70
0
62
1
6
CONTINUOUS
0
LAYER
5
52
100
AcDbSymbolTableRecord
100
AcDbLayerTableRecord
2
PERIMETER
70
0
62
5
6
CONTINUOUS
0
ENDTAB
0
TABLE
2
STYLE
5
3
100
AcDbSymbolTable
70
1
0
STYLE
5
11
100
AcDbSymbolTableRecord
100
AcDbTextStyleTableRecord
2
STANDARD
70
0
0
ENDTAB
0
TABLE
2
VIEW
5
6
100
AcDbSymbolTable
0
ENDTAB
0
TABLE
2
UCS
5
7
100
AcDbSymbolTable
0
ENDTAB
0
TABLE
2
APPID
5
9
100
AcDbSymbolTable
70
1
0
APPID
5
12
100
AcDbSymbolTableRecord
100
AcDbRegAppTableRecord
2
ACAD
70
0
0
ENDTAB
0
TABLE
2
DIMSTYLE
5
A
100
AcDbSymbolTable
0
ENDTAB
0
TABLE
2
BLOCK_RECORD
5
1
100
AcDbSymbolTable
70
2
0
BLOCK_RECORD
5
1F
100
AcDbSymbolTableRecord
100
AcDbBlockTableRecord
2
*MODEL_SPACE
0
BLOCK_RECORD
5
1B
100
AcDbSymbolTableRecord
100
AcDbBlockTableRecord
2
*PAPER_SPACE
0
ENDTAB
0
ENDSEC
0
SECTION
2
BLOCKS
0
BLOCK
5
20
100
AcDbEntity
100
AcDbBlockBegin
2
*MODEL_SPACE
0
ENDBLK
5
21
100
AcDbEntity
100
AcDbBlockEnd
0
BLOCK
5
1C
100
AcDbEntity
100
AcDbBlockBegin
2
*PAPER_SPACE
0
ENDBLK
5
1D
100
AcDbEntity
100
AcDbBlockEnd
0
ENDSEC
0
SECTION
2
ENTITIES
0
CIRCLE
5
100
100
AcDbEntity
8
CUTOUTS
100
AcDbCircle
10
107.29487978213334
20
-181.0525724232885
30
0
40
1.0999999999999943
210
0
220
0
230
1
0
CIRCLE
5
101
100
AcDbEntity
8
CUTOUTS
100
AcDbCircle
10
55.794879782133329
20
-138.92757242328852
30
0
40
1.1000000000000032
210
0
220
0
230
1
0
CIRCLE
5
102
100
AcDbEntity
8
CUTOUTS
100
AcDbCircle
10
91.794879782133322
20
-159.11507242328852
30
0
40
1.0999999999999943
210
0
220
0
230
1
0
CIRCLE
5
103
100
AcDbEntity
8
CUTOUTS
100
AcDbCircle
10
91.794879782133307
20
-127.77132242328852
30
0
40
1.0999999999999943
210
0
220
0
230
1
0
CIRCLE
5
104
100
AcDbEntity
8
CUTOUTS
100
AcDbCircle
10
37.794879782133329
20
-161.2400724232885
30
0
40
1.0999999999999988
210
0
220
0
230
1
0
LWPOLYLINE
5
105
100
AcDbEntity
8
CUTOUTS
100
AcDbPolyline
90
4
70
1
43
0.0
10
123.19397290728944
20
-188.99156393781647
10
110.89578319824469
20
-181.89116620995713
10
117.89578546242838
20
-169.76677608136947
10
130.19397756056648
20
-176.866783464034
0
LWPOLYLINE
5
106
100
AcDbEntity
8
CUTOUTS
100
AcDbPolyline
90
4
70
1
43
0.0
10
57.694879782133334
20
-170.36507242328852
10
57.694879782133334
20
-156.36507242328855
10
71.89487978213333
20
-156.36507242328855
10
71.89487978213333
20
-170.36507242328852
0
LWPOLYLINE
5
107
100
AcDbEntity
8
CUTOUTS
100
AcDbPolyline
90
4
70
1
43
0.0
10
39.694879782133341
20
-158.49007242328852
10
53.894879782133351
20
-158.49007242328852
10
53.894879782133351
20
-172.4900724232885
10
39.694879782133341
20
-172.4900724232885
0
LWPOLYLINE
5
108
100
AcDbEntity
8
CUTOUTS
100
AcDbPolyline
90
4
70
1
43
0.0
10
35.89487978213333
20
-145.74007242328852
10
35.89487978213333
20
-159.74007242328852
10
21.694879782133334
20
-159.74007242328852
10
21.694879782133334
20
-145.74007242328852
0
LWPOLYLINE
5
109
100
AcDbEntity
8
CUTOUTS
100
AcDbPolyline
90
4
70
1
43
0.0
10
75.694879782133327
20
-141.49007242328852
10
89.89487978213333
20
-141.49007242328852
10
89.89487978213333
20
-155.49007242328852
10
75.694879782133327
20
-155.49007242328852
0
LWPOLYLINE
5
10A
100
AcDbEntity
8
CUTOUTS
100
AcDbPolyline
90
4
70
1
43
0.0
10
21.694879782133334
20
-142.74007242328852
10
21.694879782133334
20
-128.7400724232885
10
35.89487978213333
20
-128.7400724232885
10
35.89487978213333
20
-142.74007242328852
0
LWPOLYLINE
5
10B
100
AcDbEntity
8
CUTOUTS
100
AcDbPolyline
90
4
70
1
43
0.0
10
75.694879782133327
20
-158.49007242328852
10
89.89487978213333
20
-158.49007242328852
10
89.89487978213333
20
-172.4900724232885
10
75.694879782133327
20
-172.4900724232885
0
LWPOLYLINE
5
10C
100
AcDbEntity
8
CUTOUTS
100
AcDbPolyline
90
4
70
1
43
0.0
10
39.694879782133341
20
-138.49007242328852
10
39.694879782133341
20
-124.49007242328852
10
53.894879782133351
20
-124.49007242328852
10
53.894879782133351
20
-138.49007242328852
0
LWPOLYLINE
5
10D
100
AcDbEntity
8
CUTOUTS
100
AcDbPolyline
90
4
70
1
43
0.0
10
93.694879782133341
20
-143.61507242328852
10
107.89487978213332
20
-143.61507242328852
10
107.89487978213332
20
-157.6150724232885
10
93.694879782133341
20
-157.6150724232885
0
LWPOLYLINE
5
10E
100
AcDbEntity
8
CUTOUTS
100
AcDbPolyline
90
4
70
1
43
0.0
10
57.694879782133334
20
-153.36507242328852
10
57.694879782133334
20
-139.3650724232885
10
71.89487978213333
20
-139.3650724232885
10
71.89487978213333
20
-153.36507242328852
0
LWPOLYLINE
5
10F
100
AcDbEntity
8
CUTOUTS
100
AcDbPolyline
90
4
70
1
43
0.0
10
98.89487978213333
20
-179.74007242328852
10
98.89487978213333
20
-193.7400724232885
10
84.694879782133341
20
-193.7400724232885
10
84.694879782133341
20
-179.74007242328852
0
LWPOLYLINE
5
110
100
AcDbEntity
8
CUTOUTS
100
AcDbPolyline
90
4
70
1
43
0.0
10
93.694879782133341
20
-160.6150724232885
10
107.89487978213332
20
-160.6150724232885
10
107.89487978213332
20
-174.61507242328852
10
93.694879782133341
20
-174.61507242328852
0
LWPOLYLINE
5
111
100
AcDbEntity
8
CUTOUTS
100
AcDbPolyline
90
4
70
1
43
0.0
10
66.694879782133327
20
-191.61507242328852
10
66.694879782133327
20
-177.6150724232885
10
80.89487978213333
20
-177.6150724232885
10
80.89487978213333
20
-191.61507242328852
0
LWPOLYLINE
5
112
100
AcDbEntity
8
CUTOUTS
100
AcDbPolyline
90
4
70
1
43
0.0
10
71.89487978213333
20
-122.36507242328852
10
71.89487978213333
20
-136.3650724232885
10
57.694879782133334
20
-136.3650724232885
10
57.694879782133334
20
-122.36507242328852
0
LWPOLYLINE
5
113
100
AcDbEntity
8
CUTOUTS
100
AcDbPolyline
90
4
70
1
43
0.0
10
107.89487978213332
20
-126.61507242328852
10
107.89487978213332
20
-140.6150724232885
10
93.694879782133341
20
-140.6150724232885
10
93.694879782133341
20
-126.61507242328852
0
LWPOLYLINE
5
114
100
AcDbEntity
8
CUTOUTS
100
AcDbPolyline
90
4
70
1
43
0.0
10
53.894879782133351
20
-155.49007242328852
10
39.694879782133341
20
-155.49007242328852
10
39.694879782133341
20
-141.49007242328852
10
53.894879782133351
20
-141.49007242328852
0
LWPOLYLINE
5
115
100
AcDbEntity
8
CUTOUTS
100
AcDbPolyline
90
4
70
1
43
0.0
10
102.39578797641585
20
-196.61356483071864
10
109.39578247608571
20
-184.48957435729042
10
121.6939715878508
20
-191.58958001585844
10
114.69397708818094
20
-203.71357048928661
0
LWPOLYLINE
5
116
100
AcDbEntity
8
CUTOUTS
100
AcDbPolyline
90
4
70
1
43
0.0
10
89.89487978213333
20
-124.49007242328852
10
89.89487978213333
20
-138.49007242328852
10
75.694879782133327
20
-138.49007242328852
10
75.694879782133327
20
-124.49007242328852
0
LWPOLYLINE
5
117
100
AcDbEntity
8
CUTOUTS
100
AcDbPolyline
90
4
70
1
43
0.0
10
35.89487978213333
20
-176.74007242328852
10
21.694879782133334
20
-176.74007242328852
10
21.694879782133334
20
-162.74007242328852
10
35.89487978213333
20
-162.74007242328852
0
LWPOLYLINE
5
118
100
AcDbEntity
8
PERIMETER
100
AcDbPolyline
90
23
70
1
43
0.0
10
106.86601284857828
20
-203.10449097995951
42
0.060570007732395292
10
97.926761425400471
20
-199.2975397528229
10
96.429137272805747
20
-198.8642725796883
42
0.06836458101362658
10
85.588765197269652
20
-197.2802281367691
10
63.288444180251687
20
-197.08886688422737
42
-0.41170250590546625
10
62.544879767232132
20
-196.33889449592218
10
62.544879767232189
20
-182.74007243818966
42
0.41421356237310381
10
59.294879767232175
20
-179.49007243818966
10
19.555541270202788
20
-179.4900724381896
42
-0.41421356237307427
10
18.555541270202795
20
-178.49007243818963
10
18.555541270202752
20
-122.84336229834182
42
-0.36265129484613112
10
19.377305215037506
20
-121.85937453996308
42
-0.094779932158880684
10
110.24237002106463
20
-122.75004189193078
42
-0.35711565722969424
10
111.0448797970345
20
-123.73034674829566
10
111.04487979703451
20
-157.29184695618443
42
0.26791563667721008
10
113.66931042986089
20
-161.83815155422445
10
134.43064972573009
20
-173.82818330445801
42
-0.41421356237309243
10
134.79650405541892
20
-175.19425453592726
10
134.42152892172822
20
-175.84354269723497
10
125.17143486089631
20
-191.86503205432032
10
116.98996449665928
20
-206.03630124962797
10
116.2284876706571
20
-207.35521780057041
42
-0.41421356232695145
10
114.86246226695144
20
-207.72124320421841
0
ENDSEC
0
SECTION
2
OBJECTS
0
DICTIONARY
5
C
100
AcDbDictionary
3
ACAD_GROUP
350
D
3
ACAD_MLINESTYLE
350
17
0
DICTIONARY
5
D
100
AcDbDictionary
0
DICTIONARY
5
1A
330
C
100
AcDbDictionary
0
DICTIONARY
5
17
100
AcDbDictionary
0
ENDSEC
0
EOF
